<svg xmlns="http://www.w3.org/2000/svg" width="320" height="320" viewBox="0 0 320 320">
  <defs>
    <linearGradient id="g" x1="0" y1="0" x2="1" y2="1">
      <stop offset="0" stop-color="#ff93c5"/>
      <stop offset="1" stop-color="#ff5fa2"/>
    </linearGradient>
  </defs>

  <circle cx="160" cy="170" r="110" fill="#fff" stroke="rgba(255,95,162,.22)" stroke-width="6"/>
  <circle cx="160" cy="170" r="100" fill="url(#g)" opacity=".20"/>

  <path d="M80 110 L55 70 Q50 60 64 58 Q78 56 92 78 L105 105 Z" fill="#fff" stroke="rgba(255,95,162,.22)" stroke-width="6" stroke-linejoin="round"/>
  <path d="M240 110 L265 70 Q270 60 256 58 Q242 56 228 78 L215 105 Z" fill="#fff" stroke="rgba(255,95,162,.22)" stroke-width="6" stroke-linejoin="round"/>

  <ellipse cx="125" cy="170" rx="12" ry="16" fill="#1d1d1f" opacity=".85"/>
  <ellipse cx="195" cy="170" rx="12" ry="16" fill="#1d1d1f" opacity=".85"/>
  <circle cx="121" cy="165" r="4" fill="#fff"/>
  <circle cx="191" cy="165" r="4" fill="#fff"/>

  <path d="M155 190 Q160 198 165 190 Q160 186 155 190Z" fill="#1d1d1f" opacity=".8"/>
  <path d="M160 198 Q148 210 132 205" fill="none" stroke="#1d1d1f" stroke-width="6" stroke-linecap="round" opacity=".7"/>
  <path d="M160 198 Q172 210 188 205" fill="none" stroke="#1d1d1f" stroke-width="6" stroke-linecap="round" opacity=".7"/>

  <path d="M95 195 Q70 190 50 182" stroke="#1d1d1f" stroke-width="5" stroke-linecap="round" opacity=".45"/>
  <path d="M95 212 Q70 215 50 220" stroke="#1d1d1f" stroke-width="5" stroke-linecap="round" opacity=".35"/>
  <path d="M225 195 Q250 190 270 182" stroke="#1d1d1f" stroke-width="5" stroke-linecap="round" opacity=".45"/>
  <path d="M225 212 Q250 215 270 220" stroke="#1d1d1f" stroke-width="5" stroke-linecap="round" opacity=".35"/>

  <circle cx="120" cy="190" r="10" fill="#ff93c5" opacity=".55"/>
  <circle cx="200" cy="190" r="10" fill="#ff93c5" opacity=".55"/>
</svg>
