<svg xmlns="http://www.w3.org/2000/svg" width="220" height="220" viewBox="0 0 220 220">
  <defs>
    <radialGradient id="p" cx="50%" cy="40%" r="60%">
      <stop offset="0" stop-color="#fff" stop-opacity=".95"/>
      <stop offset="1" stop-color="#ff93c5" stop-opacity=".95"/>
    </radialGradient>
  </defs>
  <g transform="translate(110 110)">
    <g opacity=".96">
      <path d="M0-74 C18-60 22-38 0-26 C-22-38-18-60 0-74Z" fill="url(#p)"/>
      <path d="M74 0 C60 18 38 22 26 0 C38-22 60-18 74 0Z" fill="url(#p)"/>
      <path d="M0 74 C-18 60-22 38 0 26 C22 38 18 60 0 74Z" fill="url(#p)"/>
      <path d="M-74 0 C-60-18-38-22-26 0 C-38 22-60 18-74 0Z" fill="url(#p)"/>
      <path d="M52-52 C60-28 48-10 26-12 C24-34 30-50 52-52Z" fill="url(#p)" opacity=".92"/>
      <path d="M52 52 C30 50 24 34 26 12 C48 10 60 28 52 52Z" fill="url(#p)" opacity=".92"/>
      <path d="M-52 52 C-60 28-48 10-26 12 C-24 34-30 50-52 52Z" fill="url(#p)" opacity=".92"/>
      <path d="M-52-52 C-30-50-24-34-26-12 C-48-10-60-28-52-52Z" fill="url(#p)" opacity=".92"/>
    </g>
    <circle r="18" fill="#fff" opacity=".92"/>
    <circle r="11" fill="#ff5fa2" opacity=".72"/>
  </g>
</svg>
